<?xml version="1.0" encoding="utf-8"?>
<!-- Generator: Adobe Illustrator 24.0.1, SVG Export Plug-In . SVG Version: 6.00 Build 0)  -->
<svg version="1.1" id="logo" xmlns="http://www.w3.org/2000/svg" xmlns:xlink="http://www.w3.org/1999/xlink" x="0px" y="0px"
	 viewBox="0 0 442.2 62.77" style="enable-background:new 0 0 442.2 62.77;" xml:space="preserve">
<style type="text/css">
	.Arched_x0020_Green{fill:url(#SVGID_1_);stroke:#FFFFFF;stroke-width:0.25;stroke-miterlimit:1;}
	.st0{opacity:0.75;}
	.st1{fill:#E30613;}
	.st2{fill:#005A91;}
	.st3{fill:#009FE3;}
	.st4{fill:#008D36;}
	.st5{fill:#95C11F;}
	.st6{fill:#FFDD00;}
	.st7{fill:#F39200;}
	.st8{fill:#E6007E;}
</style>
<linearGradient id="SVGID_1_" gradientUnits="userSpaceOnUse" x1="-243.7633" y1="354.3886" x2="-243.0562" y2="353.6815">
	<stop  offset="0" style="stop-color:#1DA238"/>
	<stop  offset="0.9831" style="stop-color:#24391D"/>
</linearGradient>
<g class="st0">
</g>
<g>
	<path d="M285.78,1.54L269.4,61.7h-11.36l-8.37-32.8l-8.5,32.8h-11.36l-15.5-60.16h17.52l9.12,36.52l9.12-36.52h10.26l8.98,36.65
		l9.6-36.65H285.78z"/>
	<path d="M290.34,61.7V1.54h25.85c6.74,0,12.12,1.42,16.16,4.26c4.03,2.84,6.05,6.65,6.05,11.42c0,7.31-4.34,12.06-13,14.27
		c4.43,1.64,7.3,3.44,8.61,5.41c1.3,1.96,2.19,5.77,2.66,11.43c0.56,6.74,1.69,11.19,3.39,13.36h-18.93
		c-1.2-2.78-1.8-6.26-1.8-10.42l-0.09-3.56l-0.09-4.48c0-6.91-2.79-10.37-8.37-10.37h-2.99V61.7H290.34z M307.79,27.88h3.52
		c6.67,0,10-3.46,10-10.38c0-6.92-3.34-10.38-10-10.38h-3.52V27.88z"/>
	<path d="M371.87,0.59c17.47,0,26.21,10.36,26.21,31.09c0,20.72-8.9,31.09-26.7,31.09c-17.8,0-26.7-10.6-26.7-31.79
		C344.69,10.72,353.75,0.59,371.87,0.59z M371.38,5.34c-3.29,0-5.52,1.82-6.68,5.45c-1.16,3.63-1.74,10.6-1.74,20.89
		c0,10.3,0.58,17.26,1.74,20.89c1.16,3.63,3.39,5.45,6.68,5.45c3.29,0,5.52-1.82,6.68-5.45c1.16-3.63,1.74-10.6,1.74-20.89
		c0-10.27-0.58-17.22-1.74-20.87C376.91,7.16,374.68,5.34,371.38,5.34z"/>
</g>
<path class="st1" d="M422.09,31.46v-3.43l16.68,4.5l2.9-5.02l-19.58-4.93V18.9c3.2-1.47,5.43-4.7,5.43-8.46
	c0-5.14-4.17-9.31-9.31-9.31c-5.14,0-9.31,4.17-9.31,9.31c0,3.96,2.47,7.33,5.95,8.68v3.27v7.88v2.22l-10.57,20.93h4.07l-3.6,6.24
	l4.82,2.79l5.21-9.03h6.99l5.37,9.29l4.82-2.79l-3.76-6.51h4.99L422.09,31.46z"/>
<path class="st2" d="M34.25,40.44l3.71-4.46l-15.7-13.17V18.9c3.2-1.47,5.43-4.7,5.43-8.46c0-5.14-4.17-9.31-9.31-9.31
	c-5.14,0-9.31,4.17-9.31,9.31c0,3.96,2.47,7.33,5.95,8.68v3.73L0.53,37.34l3.94,3.94l10.55-10.55v11.43L4.92,59.66l4.82,2.79
	l8.7-15.08l8.86,15.34l4.82-2.79l-9.86-17.08V30.08L34.25,40.44z"/>
<path class="st3" d="M52.28,31.46v-1l10.51,10.51l3.94-3.94L52.28,22.58V18.9c3.2-1.47,5.43-4.7,5.43-8.46
	c0-5.14-4.17-9.31-9.31-9.31c-5.14,0-9.31,4.17-9.31,9.31c0,3.96,2.47,7.33,5.95,8.68v3.27L30.36,37.06L34.29,41l10.74-10.74v2.22
	L34.46,53.41h4.07l-3.6,6.24l4.82,2.79l5.21-9.03h6.99l5.37,9.29l4.82-2.79l-3.76-6.51h4.99L52.28,31.46z"/>
<path class="st4" d="M93.11,40.25l3.58-4.27L81,22.81V18.9c3.2-1.47,5.43-4.7,5.43-8.46c0-5.14-4.17-9.31-9.31-9.31
	c-5.14,0-9.31,4.17-9.31,9.31c0,3.96,2.47,7.33,5.95,8.68v3.73L59.21,37.39l3.94,3.94l10.6-10.6v11.43l-10.11,17.5l4.82,2.79
	l8.7-15.08l8.86,15.34l4.82-2.79L81,42.85V30.08L93.11,40.25z"/>
<path class="st5" d="M111.01,31.46v-1l10.51,10.51l3.94-3.94l-14.45-14.45V18.9c3.2-1.47,5.43-4.7,5.43-8.46
	c0-5.14-4.17-9.31-9.31-9.31c-5.14,0-9.31,4.17-9.31,9.31c0,3.96,2.47,7.33,5.95,8.68v3.27L89.21,36.95l3.94,3.94l10.62-10.62v2.22
	L93.2,53.41h4.07l-3.6,6.24l4.82,2.79l5.21-9.03h6.99l5.37,9.29l4.82-2.79l-3.76-6.51h4.99L111.01,31.46z"/>
<path class="st6" d="M152.11,40.25l3.58-4.27l-15.7-13.17V18.9c3.2-1.47,5.43-4.7,5.43-8.46c0-5.14-4.17-9.31-9.31-9.31
	c-5.14,0-9.31,4.17-9.31,9.31c0,3.96,2.47,7.33,5.95,8.68v3.73l-14.67,14.67l3.94,3.94l10.73-10.73v11.43l-10.1,17.5l4.82,2.79
	l8.7-15.08l8.86,15.34l4.82-2.79l-9.86-17.08V30.08L152.11,40.25z"/>
<path class="st7" d="M170,31.46v-1l10.51,10.51l3.94-3.94L170,22.58V18.9c3.2-1.47,5.43-4.7,5.43-8.46c0-5.14-4.17-9.31-9.31-9.31
	c-5.14,0-9.31,4.17-9.31,9.31c0,3.96,2.47,7.33,5.95,8.68v3.27l-14.57,14.56l3.94,3.94l10.63-10.63v2.22l-10.57,20.93h4.07
	l-3.6,6.24l4.82,2.79l5.21-9.03h6.99l5.37,9.29l4.82-2.79l-3.76-6.51h4.99L170,31.46z"/>
<path class="st8" d="M210.74,40.25l3.58-4.27l-15.7-13.17V18.9c3.2-1.47,5.43-4.7,5.43-8.46c0-5.14-4.17-9.31-9.31-9.31
	c-5.14,0-9.31,4.17-9.31,9.31c0,3.96,2.47,7.33,5.95,8.68v3.73l-14.49,14.49l3.94,3.94l10.55-10.55v11.43l-10.11,17.5l4.82,2.79
	l8.71-15.08l8.86,15.34l4.82-2.79l-9.86-17.08V30.08L210.74,40.25z"/>
<g>
	<path d="M400.75,11.66c-2.99,0-5.35-2.36-5.35-5.35s2.36-5.35,5.35-5.35s5.35,2.36,5.35,5.35S403.74,11.66,400.75,11.66z
		 M400.75,1.61c-2.57,0-4.7,2.13-4.7,4.7c0,2.57,2.13,4.7,4.7,4.7c2.57,0,4.7-2.13,4.7-4.7C405.45,3.74,403.32,1.61,400.75,1.61z
		 M403.03,9.37h-0.93l-1.61-2.63h-0.86v2.63h-0.74V3.25h1.74c1.22,0,2.07,0.6,2.07,1.74s-0.83,1.56-1.43,1.68L403.03,9.37z
		 M400.54,3.89h-0.9V6.1h0.9c0.71,0,1.38-0.21,1.38-1.11C401.92,4.1,401.24,3.89,400.54,3.89z"/>
</g>
</svg>
